<svg xmlns="http://www.w3.org/2000/svg" viewBox="0 0 18 17" width="18" height="17">
	<style>
		tspan { white-space:pre }
		.shp0 { fill: #343d5b } 
	</style>
	<path id="Shopping Cart Icon" class="shp0" d="M18 4.05L17 7.04C16.63 7.88 16.1 9.03 15 9.03L5.36 9.03L5.48 10.03L18 10.03L17 12.02L4.35 12.02L3.71 12.09L2.52 2.06L1 2.06C0.45 2.06 0 1.62 0 1.07C0 0.52 0.35 0.01 0.9 0.01L4.29 -0.01L4.55 2.14C4.67 2.1 4.81 2.06 5 2.06L17 2.06C18.1 2.06 18 2.95 18 4.05ZM6 13.01C7.1 13.01 8 13.91 8 15.01C8 16.11 7.1 17 6 17C4.9 17 4 16.11 4 15.01C4 13.91 4.9 13.01 6 13.01ZM14 13.01C15.1 13.01 16 13.91 16 15.01C16 16.11 15.1 17 14 17C12.9 17 12 16.11 12 15.01C12 13.91 12.9 13.01 14 13.01Z" />
</svg>