<svg xmlns="http://www.w3.org/2000/svg" viewBox="0 0 92 25" width="92" height="25">
	<style>
		tspan { white-space:pre }
		.shp0 { fill: #3a405b } 
	</style>
	<path id="Portland" class="shp0" d="M1.04 24.42C1.31 24.58 1.6 24.66 1.92 24.66C2.54 24.66 2.99 24.53 3.27 24.25C3.55 23.98 3.78 23.61 3.95 23.16C4.13 22.74 4.3 22.23 4.47 21.64C4.64 21.05 4.8 20.42 4.96 19.74C5.12 19.06 5.27 18.37 5.41 17.67C5.55 16.96 5.69 16.28 5.83 15.61C7.55 15.52 9.08 15.16 10.42 14.52C11.76 13.89 12.9 13.12 13.83 12.21C14.76 11.31 15.49 10.32 16.02 9.24C16.55 8.17 16.86 7.14 16.97 6.16C17.02 5.63 17 5.01 16.89 4.31C16.79 3.6 16.55 2.93 16.19 2.3C15.83 1.67 15.31 1.13 14.63 0.69C13.96 0.25 13.06 0.03 11.95 0.03C10.85 0.03 9.83 0.14 8.92 0.35C8 0.56 7.2 0.81 6.52 1.1C5.83 1.39 5.25 1.69 4.79 1.98C4.32 2.28 3.97 2.51 3.74 2.67C3.3 2.97 3.08 3.26 3.08 3.54C3.08 3.82 3.14 4.1 3.24 4.36C3.29 4.48 3.36 4.6 3.43 4.7C3.55 4.93 3.73 5.14 3.95 5.34C4.25 5.02 4.56 4.72 4.88 4.43C5.2 4.14 5.49 3.88 5.78 3.65C6.09 3.38 6.42 3.15 6.75 2.93C6.63 3.38 6.46 3.99 6.25 4.78C6.04 5.57 5.8 6.46 5.54 7.44C5.27 8.41 5 9.44 4.72 10.52C4.44 11.61 4.16 12.66 3.89 13.68C3.62 14.7 3.36 15.66 3.14 16.56C2.91 17.46 2.72 18.19 2.58 18.78C2.32 19.87 2.06 20.73 1.82 21.36C1.57 22 1.35 22.48 1.14 22.81C0.94 23.15 0.76 23.38 0.61 23.5C0.47 23.62 0.36 23.71 0.28 23.76C0.51 24.05 0.76 24.27 1.04 24.42ZM6.99 9.69C7.15 8.97 7.36 8.04 7.64 6.9C7.91 5.75 8.26 4.33 8.68 2.62C8.63 2.42 8.55 2.27 8.44 2.17C8.37 2.1 8.31 2.06 8.26 2.04C8.68 1.84 9.1 1.69 9.53 1.56C9.95 1.44 10.38 1.38 10.82 1.38C11.28 1.38 11.73 1.45 12.19 1.6C12.65 1.75 13.05 2.01 13.41 2.37C13.76 2.73 14.03 3.2 14.21 3.79C14.4 4.38 14.44 5.12 14.36 6C14.27 6.91 14.07 7.74 13.76 8.49C13.45 9.24 13.07 9.91 12.61 10.5C12.16 11.09 11.65 11.61 11.1 12.06C10.54 12.51 9.97 12.89 9.39 13.2C8.81 13.52 8.23 13.77 7.65 13.96C7.07 14.14 6.54 14.27 6.07 14.34C6.17 13.78 6.26 13.27 6.34 12.82C6.42 12.37 6.49 12.01 6.54 11.73C6.65 11.22 6.8 10.54 6.99 9.69L6.99 9.69ZM26.05 15C26.63 14.65 27.17 14.29 27.66 13.92C28.15 13.55 28.58 13.2 28.94 12.89C29.3 12.57 29.53 12.36 29.62 12.25C29.77 12.06 29.87 11.88 29.91 11.73C29.94 11.57 29.93 11.44 29.88 11.36C29.83 11.27 29.74 11.23 29.62 11.25C29.49 11.27 29.34 11.36 29.17 11.51C28.96 11.73 28.67 11.96 28.32 12.23C27.97 12.49 27.59 12.75 27.17 13.01C26.76 13.26 26.33 13.5 25.89 13.73C25.45 13.96 25.03 14.16 24.63 14.31C24.64 14.17 24.66 14 24.68 13.8C24.7 13.6 24.71 13.43 24.71 13.28C24.71 12.6 24.59 12.01 24.36 11.53C24.13 11.04 23.86 10.64 23.53 10.33C23.2 10.01 22.87 9.77 22.53 9.61C22.18 9.46 21.9 9.37 21.67 9.35C21.62 9.33 21.57 9.31 21.52 9.3C21.48 9.28 21.43 9.27 21.38 9.27C21.06 9.27 20.74 9.31 20.4 9.39C20.07 9.47 19.76 9.58 19.46 9.73C19.17 9.88 18.92 10.07 18.7 10.3C18.48 10.53 18.32 10.79 18.21 11.09C17.91 11.44 17.65 11.83 17.43 12.25C17.21 12.68 17.03 13.1 16.89 13.52C16.75 13.94 16.64 14.36 16.56 14.76C16.48 15.17 16.44 15.54 16.44 15.87C16.44 16.35 16.46 16.86 16.51 17.4C16.55 17.95 16.68 18.45 16.88 18.91C17.08 19.37 17.39 19.75 17.8 20.06C18.21 20.36 18.78 20.52 19.5 20.52C20.12 20.52 20.69 20.4 21.21 20.16C21.73 19.92 22.19 19.59 22.61 19.17C23.02 18.75 23.38 18.25 23.68 17.67C23.97 17.09 24.21 16.46 24.39 15.79C24.92 15.62 25.47 15.35 26.05 15ZM20.78 11C21.09 10.82 21.41 10.72 21.75 10.72C21.96 10.72 22.14 10.82 22.29 11C22.44 11.19 22.56 11.42 22.66 11.71C22.76 12 22.82 12.32 22.86 12.68C22.89 13.03 22.89 13.37 22.86 13.71C22.86 13.85 22.84 14.01 22.79 14.19C22.75 14.38 22.7 14.59 22.65 14.81C22.56 14.83 22.47 14.85 22.38 14.85C22.29 14.86 22.21 14.87 22.12 14.87C21.57 14.87 21.15 14.78 20.84 14.62C20.53 14.45 20.31 14.24 20.16 14C20.02 13.75 19.94 13.47 19.9 13.17C19.87 12.86 19.85 12.56 19.85 12.28C19.85 12.11 19.87 11.94 19.93 11.78C20.19 11.44 20.48 11.19 20.78 11ZM18.34 15.42C18.41 15.07 18.5 14.71 18.61 14.34C18.87 14.96 19.24 15.46 19.73 15.86C20.21 16.25 20.79 16.45 21.46 16.45C21.6 16.45 21.73 16.45 21.84 16.44C21.96 16.43 22.07 16.42 22.2 16.4C22.07 16.73 21.93 17.06 21.76 17.36C21.59 17.67 21.41 17.94 21.19 18.18C20.98 18.42 20.75 18.61 20.48 18.76C20.22 18.91 19.93 18.99 19.61 18.99C19.33 18.99 19.1 18.91 18.92 18.76C18.75 18.61 18.61 18.42 18.5 18.18C18.4 17.94 18.33 17.67 18.29 17.36C18.25 17.06 18.24 16.74 18.24 16.43C18.24 16.11 18.27 15.77 18.34 15.42ZM26.62 19.21C26.84 18.85 27.11 18.41 27.42 17.89C27.74 17.37 28.08 16.81 28.44 16.21C28.8 15.62 29.14 15.04 29.47 14.5C29.8 13.95 30.08 13.48 30.33 13.07C30.57 12.67 30.73 12.4 30.8 12.28C30.94 12.32 31.09 12.37 31.25 12.44C31.41 12.51 31.6 12.54 31.83 12.54C31.99 12.54 32.11 12.54 32.19 12.53C32.27 12.52 32.33 12.52 32.37 12.52C32.42 12.52 32.46 12.51 32.51 12.51C32.55 12.5 32.63 12.49 32.73 12.49C32.89 12.49 33 12.55 33.07 12.68C33.14 12.8 33.18 12.94 33.18 13.1C33.18 13.35 33.09 13.65 32.9 14.01C32.72 14.37 32.48 14.81 32.18 15.32C32.05 15.56 31.92 15.81 31.77 16.07C31.62 16.32 31.48 16.58 31.34 16.83C31.21 17.09 31.1 17.34 31 17.57C30.9 17.81 30.85 18.04 30.83 18.25C30.81 18.51 30.84 18.8 30.92 19.11C31 19.41 31.13 19.7 31.32 19.95C31.5 20.2 31.75 20.42 32.04 20.6C32.34 20.77 32.72 20.86 33.18 20.86C33.62 20.86 34.08 20.73 34.57 20.46C35.05 20.2 35.53 19.86 36.02 19.45C36.5 19.04 36.96 18.58 37.4 18.08C37.84 17.57 38.24 17.09 38.61 16.61C38.97 16.14 39.27 15.7 39.53 15.32C39.78 14.93 39.96 14.65 40.07 14.47C40.23 14.21 40.29 14 40.27 13.84C40.24 13.68 40.18 13.57 40.07 13.52C39.96 13.47 39.84 13.47 39.7 13.52C39.56 13.57 39.45 13.67 39.36 13.81C39.25 13.95 39.09 14.18 38.87 14.5C38.65 14.81 38.38 15.17 38.06 15.57C37.75 15.96 37.4 16.37 37.03 16.78C36.66 17.2 36.29 17.57 35.91 17.92C35.53 18.26 35.16 18.54 34.8 18.76C34.44 18.98 34.11 19.09 33.81 19.09C33.41 19.09 33.16 19.02 33.07 18.88C32.99 18.74 32.92 18.55 32.89 18.33C32.85 17.97 32.96 17.58 33.21 17.14C33.45 16.7 33.7 16.3 33.95 15.95C34.35 15.39 34.69 14.87 34.98 14.39C35.26 13.92 35.37 13.46 35.32 13.02C35.3 12.81 35.26 12.58 35.2 12.32C35.14 12.07 35.05 11.83 34.92 11.61C34.8 11.39 34.64 11.2 34.45 11.05C34.25 10.9 34.01 10.83 33.71 10.83C33.46 10.83 33.28 10.85 33.17 10.88C33.05 10.92 32.85 10.93 32.57 10.93C32.38 10.93 32.24 10.91 32.15 10.87C32.06 10.82 31.99 10.78 31.94 10.75C32.13 10.47 32.26 10.15 32.34 9.8C32.41 9.45 32.42 9.16 32.39 8.93C32.35 8.59 32.23 8.27 32.03 7.95C31.83 7.63 31.48 7.48 30.99 7.48C30.72 7.48 30.45 7.6 30.17 7.85C29.89 8.09 29.63 8.39 29.4 8.73C29.18 9.07 28.99 9.43 28.85 9.8C28.71 10.17 28.66 10.47 28.69 10.7C28.73 10.96 28.78 11.13 28.85 11.21C28.92 11.29 29.05 11.42 29.25 11.59C29.14 11.79 28.97 12.1 28.74 12.53C28.52 12.96 28.26 13.45 27.99 14C27.72 14.54 27.43 15.12 27.13 15.73C26.84 16.33 26.56 16.9 26.3 17.42C26.05 17.93 25.83 18.38 25.64 18.75C25.46 19.12 25.34 19.36 25.29 19.46C25.18 19.67 25.15 19.85 25.18 19.99C25.22 20.13 25.29 20.22 25.4 20.27C25.52 20.31 25.65 20.3 25.8 20.24C25.95 20.18 26.09 20.05 26.21 19.86C26.26 19.79 26.4 19.57 26.62 19.21ZM47.38 14.04C47.12 14.38 46.81 14.76 46.46 15.18C46.11 15.61 45.72 16.04 45.31 16.48C44.9 16.92 44.49 17.32 44.08 17.69C43.68 18.06 43.29 18.36 42.91 18.58C42.53 18.8 42.21 18.89 41.94 18.85C41.61 18.84 41.33 18.73 41.1 18.54C40.91 18.36 40.74 18.08 40.61 17.68C40.48 17.28 40.47 16.71 40.57 15.95C41.03 14.89 41.44 13.9 41.81 12.97C42.18 12.03 42.5 11.21 42.76 10.49C43.06 9.66 43.33 8.89 43.56 8.19C43.66 7.89 43.74 7.6 43.81 7.33C43.87 7.06 43.93 6.78 44 6.5C44.14 6.5 44.28 6.49 44.41 6.49C44.55 6.48 44.66 6.47 44.77 6.47C45.33 6.47 45.83 6.49 46.25 6.53C46.67 6.56 47.04 6.6 47.34 6.63C47.65 6.67 47.92 6.71 48.14 6.76C48.36 6.82 48.55 6.85 48.73 6.87C48.91 6.9 49.06 6.87 49.2 6.76C49.35 6.66 49.45 6.53 49.51 6.38C49.57 6.23 49.6 6.09 49.59 5.94C49.58 5.8 49.51 5.72 49.39 5.68C49.27 5.65 49.08 5.58 48.84 5.48C48.59 5.39 48.26 5.29 47.86 5.19C47.45 5.1 46.97 5.01 46.39 4.93C45.82 4.85 45.17 4.81 44.43 4.81C44.6 3.91 44.7 3.17 44.72 2.59C44.73 2.01 44.7 1.65 44.61 1.51C44.52 1.4 44.38 1.34 44.19 1.31C43.99 1.28 43.79 1.28 43.58 1.31C43.37 1.34 43.17 1.38 42.99 1.44C42.8 1.5 42.68 1.58 42.63 1.67C42.46 1.91 42.26 2.35 42.04 2.97C41.82 3.6 41.59 4.33 41.36 5.18C41.06 5.23 40.76 5.28 40.45 5.31C40.15 5.35 39.82 5.37 39.49 5.39C39.03 5.41 38.61 5.4 38.22 5.38C37.84 5.35 37.47 5.32 37.14 5.28C37.03 5.28 36.92 5.33 36.78 5.43C36.65 5.53 36.54 5.64 36.45 5.77C36.37 5.91 36.31 6.04 36.3 6.17C36.28 6.3 36.34 6.4 36.48 6.47C36.73 6.6 37.1 6.72 37.6 6.86C38.1 6.99 38.64 7.05 39.2 7.05C39.45 7.05 39.72 7.04 40.02 7C40.32 6.97 40.62 6.93 40.92 6.9C40.67 7.92 40.44 8.98 40.22 10.08C40 11.18 39.8 12.21 39.62 13.17C39.45 14.12 39.3 14.97 39.2 15.7C39.09 16.43 39.03 16.94 39.01 17.22C38.98 17.55 39.01 17.92 39.09 18.31C39.18 18.71 39.34 19.07 39.56 19.41C39.78 19.74 40.08 20.02 40.47 20.25C40.85 20.48 41.34 20.6 41.92 20.6C42.32 20.6 42.82 20.38 43.42 19.94C44.02 19.5 44.64 18.94 45.27 18.26C45.9 17.58 46.51 16.86 47.08 16.08C47.65 15.31 48.11 14.59 48.47 13.92C48.57 13.71 48.62 13.54 48.61 13.42C48.6 13.29 48.56 13.2 48.49 13.15C48.42 13.1 48.33 13.09 48.21 13.11C48.1 13.14 48.01 13.2 47.94 13.31C47.83 13.45 47.65 13.69 47.38 14.04ZM46.2 20.03C46.3 20.14 46.41 20.24 46.51 20.31C46.63 20.38 46.76 20.43 46.88 20.46C47.02 20.48 47.15 20.49 47.28 20.49C47.38 20.49 47.5 20.47 47.62 20.44C47.74 20.4 47.85 20.34 47.94 20.25C48.75 17.07 49.42 14.43 49.96 12.33C50.49 10.24 50.92 8.58 51.24 7.37C51.61 5.94 51.9 4.85 52.11 4.1C52.2 3.71 52.28 3.35 52.35 3.01C52.38 2.73 52.4 2.46 52.41 2.2C52.42 1.93 52.37 1.76 52.27 1.67C52.23 1.58 52.15 1.52 52.03 1.5C51.91 1.47 51.77 1.46 51.63 1.46C51.48 1.46 51.3 1.47 51.11 1.51C50.91 1.54 50.72 1.59 50.52 1.64C50.37 1.68 50.2 1.72 50.04 1.77C49.87 1.83 49.72 1.9 49.57 1.98C49.63 2.23 49.65 2.5 49.65 2.8C49.65 3.1 49.64 3.39 49.6 3.67C49.57 3.99 49.52 4.32 49.47 4.65C49.36 5.13 49.17 5.98 48.89 7.21C48.64 8.25 48.28 9.76 47.82 11.73C47.35 13.7 46.73 16.31 45.96 19.57C46.01 19.76 46.09 19.91 46.2 20.03ZM66.19 14C66.24 13.79 66.22 13.63 66.15 13.52C66.08 13.42 65.98 13.38 65.84 13.4C65.7 13.43 65.56 13.52 65.41 13.68C65.31 13.82 65.14 14.04 64.9 14.34C64.66 14.64 64.39 14.98 64.09 15.37C63.8 15.76 63.47 16.16 63.13 16.57C62.79 16.98 62.46 17.36 62.14 17.71C61.82 18.05 61.52 18.33 61.24 18.55C60.96 18.77 60.73 18.88 60.56 18.88C60.35 18.88 60.18 18.83 60.07 18.74C59.95 18.64 59.87 18.51 59.82 18.35C59.77 18.19 59.73 18.02 59.73 17.84C59.72 17.65 59.72 17.48 59.74 17.32C59.79 17.06 59.84 16.84 59.87 16.66C59.91 16.49 59.94 16.33 59.96 16.2C59.99 16.07 60.02 15.94 60.04 15.81C60.07 15.67 60.1 15.53 60.13 15.37C60.31 14.56 60.45 13.9 60.56 13.39C60.66 12.88 60.74 12.47 60.79 12.18C60.85 11.88 60.87 11.67 60.87 11.55C60.87 11.44 60.86 11.37 60.85 11.33C60.81 11.31 60.74 11.3 60.64 11.3C60.55 11.3 60.42 11.31 60.25 11.33C60.09 11.35 59.88 11.38 59.63 11.44C60 10.87 60.15 10.42 60.07 10.08C59.99 9.73 59.83 9.47 59.58 9.3C59.28 9.1 58.89 8.96 58.42 8.88C58.01 8.84 57.5 8.98 56.89 9.3C56.27 9.61 55.65 10.09 55.01 10.71C54.38 11.33 53.79 12.09 53.26 12.97C52.72 13.85 52.33 14.82 52.08 15.9C51.89 16.69 51.82 17.37 51.87 17.94C51.92 18.52 52.05 18.98 52.24 19.34C52.43 19.7 52.67 19.97 52.95 20.14C53.24 20.3 53.5 20.39 53.75 20.39C54.27 20.35 54.8 20.24 55.33 20.04C55.79 19.87 56.27 19.59 56.78 19.21C57.29 18.83 57.76 18.29 58.18 17.59C58.16 18.06 58.19 18.46 58.27 18.78C58.35 19.09 58.44 19.35 58.52 19.54C58.63 19.77 58.76 19.95 58.92 20.07C59.08 20.17 59.26 20.25 59.47 20.29C59.69 20.34 59.91 20.35 60.15 20.33C60.39 20.32 60.62 20.27 60.85 20.2C61.08 20.13 61.28 20.04 61.45 19.94C61.72 19.76 62.05 19.46 62.44 19.03C62.84 18.59 63.25 18.12 63.66 17.6C64.07 17.08 64.47 16.56 64.86 16.04C65.25 15.52 65.56 15.09 65.81 14.74C66.02 14.45 66.15 14.21 66.19 14ZM57.85 16.32C57.72 16.51 57.55 16.72 57.35 16.95C57.15 17.18 56.92 17.4 56.66 17.61C56.41 17.82 56.15 18 55.9 18.13C55.64 18.26 55.39 18.33 55.15 18.34C54.9 18.35 54.68 18.26 54.48 18.06C54.38 17.96 54.31 17.73 54.27 17.39C54.24 17.05 54.25 16.65 54.31 16.19C54.37 15.73 54.48 15.24 54.64 14.72C54.8 14.2 55.01 13.72 55.28 13.26C55.91 12.15 56.47 11.39 56.95 10.97C57.44 10.56 57.78 10.43 57.97 10.59C58.02 10.66 58.06 10.76 58.08 10.88C58.09 10.99 58.09 11.13 58.06 11.32C58.04 11.5 57.95 11.74 57.81 12.02C57.95 11.98 58.09 11.96 58.23 11.94C58.37 11.92 58.49 11.89 58.58 11.86C58.68 11.82 58.78 11.8 58.87 11.78C58.94 11.76 58.95 11.9 58.91 12.19C58.86 12.48 58.8 12.84 58.71 13.28C58.62 13.72 58.52 14.18 58.39 14.66C58.27 15.13 58.16 15.55 58.08 15.9C58.06 15.99 57.98 16.13 57.85 16.32ZM73.11 20.29C73.54 20.06 73.98 19.75 74.42 19.37C74.86 18.99 75.28 18.57 75.68 18.1C76.09 17.64 76.47 17.17 76.82 16.72C77.17 16.26 77.48 15.83 77.73 15.42C77.99 15.02 78.17 14.69 78.3 14.45C78.44 14.16 78.51 13.93 78.51 13.75C78.51 13.56 78.47 13.44 78.39 13.39C78.31 13.34 78.2 13.35 78.06 13.42C77.92 13.49 77.77 13.64 77.61 13.86C77.38 14.22 77.05 14.68 76.61 15.25C76.17 15.82 75.7 16.38 75.21 16.93C74.72 17.47 74.23 17.94 73.74 18.33C73.26 18.71 72.86 18.91 72.54 18.91C72.23 18.91 72.05 18.77 72.03 18.48C72 18.2 72.04 17.87 72.15 17.48C72.34 16.88 72.5 16.33 72.64 15.83C72.77 15.33 72.88 14.89 72.97 14.52L73.26 13.36C73.41 12.8 73.48 12.28 73.45 11.81C73.43 11.33 73.34 10.92 73.19 10.58C73.04 10.23 72.83 9.97 72.57 9.77C72.31 9.58 72.01 9.48 71.67 9.48C71.27 9.48 70.87 9.57 70.48 9.73C70.1 9.9 69.73 10.12 69.39 10.38C69.04 10.64 68.73 10.94 68.44 11.26C68.15 11.59 67.89 11.91 67.66 12.23C67.76 11.93 67.85 11.64 67.92 11.36C67.99 11.11 68.06 10.88 68.13 10.66C68.2 10.44 68.27 10.27 68.32 10.14C68.21 10.05 68.09 9.99 67.96 9.94C67.83 9.9 67.7 9.87 67.58 9.85C67.44 9.83 67.3 9.83 67.16 9.83C67 9.84 66.85 9.88 66.71 9.93C66.57 9.97 66.43 10.01 66.3 10.08C66.17 10.14 66.04 10.22 65.92 10.33C65.74 11 65.59 11.61 65.45 12.18C65.32 12.74 65.21 13.23 65.12 13.65C65.02 14.15 64.92 14.6 64.83 15C64.71 15.51 64.58 16.05 64.44 16.61C64.3 17.17 64.16 17.71 64.03 18.21C63.9 18.71 63.78 19.14 63.69 19.51C63.59 19.88 63.53 20.12 63.51 20.23C63.48 20.39 63.57 20.46 63.79 20.46C64.01 20.46 64.27 20.41 64.57 20.31C64.87 20.2 65.15 20.06 65.41 19.9C65.68 19.73 65.84 19.56 65.89 19.38C65.94 19.14 66 18.88 66.07 18.6C66.14 18.33 66.22 18.01 66.3 17.65C66.38 17.29 66.47 16.89 66.58 16.44C66.68 15.99 66.81 15.47 66.97 14.87C67.27 14.43 67.58 14 67.88 13.59C68.19 13.17 68.5 12.81 68.81 12.49C69.11 12.18 69.42 11.92 69.72 11.74C70.02 11.55 70.31 11.46 70.59 11.46C70.82 11.46 70.97 11.59 71.04 11.84C71.11 12.1 71.13 12.43 71.09 12.82C71.06 13.22 70.98 13.66 70.87 14.14C70.75 14.63 70.63 15.11 70.5 15.59C70.36 16.08 70.24 16.53 70.11 16.94C69.99 17.35 69.9 17.68 69.85 17.93C69.76 18.3 69.74 18.65 69.8 18.97C69.85 19.3 69.96 19.58 70.14 19.83C70.32 20.08 70.55 20.28 70.84 20.43C71.13 20.57 71.48 20.65 71.88 20.65C72.27 20.65 72.68 20.53 73.11 20.29ZM86.55 12.16C87.05 11.19 87.49 10.21 87.88 9.23C88.27 8.25 88.58 7.31 88.82 6.39C89.06 5.48 89.19 4.63 89.23 3.86C89.26 3.23 89.26 2.72 89.23 2.35C89.19 1.98 89.13 1.71 89.03 1.52C88.93 1.34 88.81 1.22 88.67 1.18C88.53 1.14 88.37 1.11 88.2 1.11C88.06 1.11 87.91 1.14 87.75 1.19C87.61 1.23 87.46 1.28 87.3 1.35C87.14 1.42 86.97 1.53 86.8 1.67C86.52 2.6 86.26 3.49 86.03 4.33C85.8 5.18 85.6 5.93 85.43 6.58C85.23 7.33 85.05 8.04 84.87 8.69C84.77 9.13 84.66 9.6 84.55 10.09C84.45 10.58 84.33 11.08 84.21 11.59C84.16 11.35 84.08 11.08 83.96 10.8C83.85 10.52 83.7 10.26 83.53 10.02C83.35 9.79 83.14 9.59 82.89 9.44C82.65 9.29 82.37 9.22 82.07 9.22C81.39 9.22 80.7 9.42 80.03 9.81C79.35 10.21 78.74 10.75 78.21 11.42C77.67 12.1 77.22 12.9 76.87 13.81C76.52 14.73 76.32 15.7 76.27 16.72C76.23 17.37 76.28 17.92 76.42 18.38C76.56 18.84 76.74 19.21 76.96 19.49C77.18 19.77 77.44 19.97 77.72 20.1C78 20.22 78.26 20.28 78.51 20.28C79.2 20.28 79.91 20.04 80.66 19.55C81.41 19.07 82.15 18.41 82.89 17.59C82.86 17.89 82.83 18.1 82.81 18.22C82.79 18.5 82.83 18.78 82.93 19.07C83.03 19.35 83.16 19.6 83.34 19.83C83.52 20.06 83.71 20.24 83.93 20.39C84.15 20.53 84.39 20.6 84.63 20.6C84.97 20.6 85.34 20.49 85.76 20.27C86.17 20.05 86.6 19.76 87.05 19.41C87.5 19.06 87.95 18.65 88.4 18.19C88.85 17.74 89.27 17.27 89.68 16.79C90.08 16.32 90.45 15.86 90.79 15.41C91.12 14.96 91.39 14.57 91.6 14.23C91.74 14.02 91.82 13.85 91.82 13.71C91.82 13.57 91.78 13.47 91.71 13.42C91.64 13.36 91.55 13.35 91.43 13.36C91.32 13.38 91.21 13.44 91.1 13.55C91.01 13.64 90.85 13.83 90.61 14.13C90.38 14.43 90.09 14.78 89.74 15.17C89.4 15.57 89.03 15.99 88.62 16.43C88.22 16.87 87.81 17.27 87.41 17.64C87 18.01 86.62 18.32 86.26 18.56C85.9 18.81 85.59 18.93 85.35 18.93C85.14 18.93 84.94 18.84 84.77 18.64C84.59 18.45 84.51 18.13 84.53 17.69C84.55 17.39 84.59 17 84.67 16.5C84.75 16.01 84.84 15.49 84.92 14.95C85.51 14.07 86.05 13.14 86.55 12.16ZM82.61 16.21C82.31 16.58 81.97 16.94 81.61 17.3C81.25 17.65 80.88 17.95 80.5 18.19C80.12 18.44 79.78 18.56 79.46 18.56C79.04 18.56 78.7 18.38 78.46 18.01C78.21 17.64 78.1 17.03 78.14 16.19C78.17 15.66 78.32 15.06 78.56 14.39C78.81 13.72 79.12 13.1 79.49 12.51C79.86 11.92 80.25 11.41 80.67 11C81.1 10.59 81.51 10.38 81.91 10.38C82.2 10.38 82.42 10.49 82.57 10.71C82.73 10.93 82.85 11.19 82.93 11.48C83.01 11.77 83.06 12.05 83.08 12.32C83.09 12.59 83.1 12.78 83.1 12.89C83.1 13.1 83.14 13.25 83.21 13.35C83.28 13.45 83.41 13.45 83.6 13.36C83.64 13.35 83.67 13.33 83.7 13.31C83.72 13.29 83.75 13.28 83.79 13.26C83.7 13.61 83.63 13.95 83.56 14.29C83.5 14.62 83.44 14.96 83.37 15.29C83.17 15.54 82.92 15.84 82.61 16.21Z" />
</svg>