<svg xmlns="http://www.w3.org/2000/svg" viewBox="0 0 13 13" width="13" height="13">
	<style>
		tspan { white-space:pre }
		.shp0 { fill: #343e5c } 
	</style>
	<path id="Search Icon" class="shp0" d="M12.61 12.61C12.11 13.11 11.3 13.11 10.8 12.61L8.16 9.97C6.09 11.22 3.36 10.97 1.57 9.18C-0.53 7.08 -0.53 3.67 1.57 1.57C3.67 -0.54 7.08 -0.54 9.19 1.57C10.97 3.36 11.23 6.08 9.97 8.15L12.61 10.8C13.11 11.3 13.11 12.11 12.61 12.61ZM7.73 3.02C6.43 1.72 4.32 1.72 3.02 3.02C1.72 4.32 1.72 6.43 3.02 7.73C4.32 9.03 6.43 9.03 7.73 7.73C9.04 6.43 9.04 4.32 7.73 3.02Z" />
</svg>