<svg version="1.2" xmlns="http://www.w3.org/2000/svg" viewBox="0 0 15 15" width="15" height="15">
	<title>Forma 1</title>
	<style>
		.s0 { fill: #888888 } 
	</style>
	<path id="Forma 1" class="s0" d="m2.4 4.5q-0.4-0.6-0.4-1.1 0-0.6 0.3-1 0.3-0.4 0.8-0.4h9.8q0.5 0 0.8 0.4 0.3 0.3 0.3 0.8 0 0.7-0.3 1.2-0.4 0.6-0.8 1-2.6 2-3.2 2.5 0 0.1-0.3 0.3-0.2 0.2-0.3 0.3-0.2 0.1-0.4 0.2-0.2 0.2-0.4 0.2-0.1 0.1-0.3 0.1-0.2 0-0.3-0.1-0.2 0-0.4-0.2-0.2-0.1-0.4-0.2-0.1-0.1-0.3-0.3-0.3-0.2-0.3-0.3-0.6-0.5-1.8-1.4-1.1-0.9-1.3-1.1-0.5-0.3-0.8-0.9zm11.6 1v6.3q0 0.5-0.3 0.8-0.3 0.4-0.8 0.4h-9.8q-0.5 0-0.8-0.4-0.3-0.3-0.3-0.8v-6.3q0.3 0.4 0.7 0.7 2.4 1.9 3.3 2.7 0.4 0.4 0.6 0.5 0.3 0.2 0.7 0.4 0.4 0.2 0.7 0.2 0.3 0 0.7-0.2 0.4-0.2 0.7-0.4 0.2-0.1 0.6-0.5 1.1-0.9 3.3-2.7 0.4-0.3 0.7-0.7z"/>
</svg>