<svg version="1.2" xmlns="http://www.w3.org/2000/svg" viewBox="0 0 16 18" width="16" height="18">
	<title>Forma 1</title>
	<style>
		.s0 { fill: #7b7b7b } 
	</style>
	<path id="Forma 1" class="s0" d="m4.8 4.9c0-2.1 0.5-3.9 3.2-3.9 2.7 0 3.2 1.8 3.2 3.9 0 2.2-1.4 3.9-3.2 3.9-1.8 0-3.2-1.7-3.2-3.9zm-2.8 9.9c0-0.1 0 0 0 0zm12 0.1c0 0 0-0.2 0 0zm0 0q0 0.1 0 0.3c0 0-0.9 1.8-6 1.8-5.1 0-6-1.8-6-1.8q0-0.3 0-0.4c0 0 0 0 0-0.3 0.1-3.6 0.6-4.7 4.3-5.4 0 0 0.5 0.7 1.7 0.7 1.2 0 1.7-0.7 1.7-0.7 3.7 0.7 4.2 1.8 4.3 5.5 0 0.3 0 0.3 0 0.3z"/>
</svg>