<svg version="1.2" xmlns="http://www.w3.org/2000/svg" viewBox="0 0 17 21" width="17" height="21">
	<title>Shape 1</title>
	<style>
		.s0 { fill: #888888 } 
	</style>
	<path id="Shape 1" class="s0" d="m5.5 8.5h-2.5v-2.5c0-2.8 2.3-5 5-5 2.7 0 5 2.2 5 5v2.5h-2.5v-2.5c0-1.4-1.1-2.6-2.5-2.6-1.4 0-2.5 1.2-2.5 2.6zm9.5 2.1v8c0 0.8-0.6 1.4-1.3 1.4h-11.4c-0.7 0-1.3-0.6-1.3-1.4v-8c0-0.7 0.6-1.3 1.3-1.3h11.3c0.8 0 1.4 0.6 1.4 1.3zm-5.9 6.4h-2.2l0.4-2.3c-0.4-0.2-0.6-0.7-0.6-1.1 0-0.8 0.6-1.3 1.3-1.3 0.7 0 1.3 0.5 1.3 1.3 0 0.4-0.2 0.9-0.6 1.1z"/>
</svg>